<?xml version="1.0" encoding="UTF-8" standalone="no"?>
<svg width="800" height="600" xmlns="http://www.w3.org/2000/svg">
  <!-- Background pattern -->
  <rect width="800" height="600" fill="#222" />
  <pattern id="checkerPattern" width="20" height="20" patternUnits="userSpaceOnUse">
    <rect width="10" height="10" fill="#2a2a2a"/>
    <rect x="10" y="0" width="10" height="10" fill="#222"/>
    <rect x="0" y="10" width="10" height="10" fill="#222"/>
    <rect x="10" y="10" width="10" height="10" fill="#2a2a2a"/>
  </pattern>
  <rect width="800" height="600" fill="url(#checkerPattern)" />

  <!-- Title -->
  <text x="400" y="60" font-family="Arial" font-size="24" text-anchor="middle" fill="white" font-weight="bold">ESP32-CAM Wiring Diagram</text>
  <text x="400" y="90" font-family="Arial" font-size="16" text-anchor="middle" fill="#aaa">For Programming with FTDI Programmer</text>

  <!-- ESP32-CAM Module -->
  <rect x="300" y="130" width="200" height="250" rx="10" fill="white" stroke="#333" stroke-width="2"/>
  <text x="400" y="160" font-family="Arial" font-size="16" text-anchor="middle" font-weight="bold">ESP32-CAM</text>

  <!-- Camera Module -->
  <rect x="350" y="180" width="100" height="80" rx="5" fill="#ccc" stroke="#333" stroke-width="2"/>
  <circle cx="400" cy="220" r="25" fill="#333" stroke="#000" stroke-width="2"/>
  <circle cx="400" cy="220" r="15" fill="#222" stroke="#000" stroke-width="1"/>
  <circle cx="400" cy="220" r="5" fill="#111"/>

  <!-- Pins -->
  <g id="pins">
    <!-- Left side pins -->
    <rect x="290" y="280" width="20" height="10" fill="#ccc" stroke="#333"/>
    <rect x="290" y="300" width="20" height="10" fill="#ccc" stroke="#333"/>
    <rect x="290" y="320" width="20" height="10" fill="#ccc" stroke="#333"/>
    <rect x="290" y="340" width="20" height="10" fill="#ccc" stroke="#333"/>

    <!-- Right side pins -->
    <rect x="490" y="280" width="20" height="10" fill="#ccc" stroke="#333"/>
    <rect x="490" y="300" width="20" height="10" fill="#ccc" stroke="#333"/>
    <rect x="490" y="320" width="20" height="10" fill="#ccc" stroke="#333"/>
    <rect x="490" y="340" width="20" height="10" fill="#ccc" stroke="#333"/>
  </g>

  <!-- FTDI Programmer -->
  <rect x="100" y="230" width="120" height="150" rx="5" fill="#e6f7ff" stroke="#333" stroke-width="2"/>
  <text x="160" y="260" font-family="Arial" font-size="14" text-anchor="middle" font-weight="bold">FTDI Programmer</text>

  <!-- FTDI Pins -->
  <rect x="210" y="280" width="20" height="10" fill="#ccc" stroke="#333"/>
  <rect x="210" y="300" width="20" height="10" fill="#ccc" stroke="#333"/>
  <rect x="210" y="320" width="20" height="10" fill="#ccc" stroke="#333"/>
  <rect x="210" y="340" width="20" height="10" fill="#ccc" stroke="#333"/>

  <!-- Pin Labels -->
  <text x="280" y="288" font-family="Arial" font-size="12" text-anchor="end" fill="black">VCC (5V)</text>
  <text x="280" y="308" font-family="Arial" font-size="12" text-anchor="end" fill="black">GND</text>
  <text x="280" y="328" font-family="Arial" font-size="12" text-anchor="end" fill="black">TX</text>
  <text x="280" y="348" font-family="Arial" font-size="12" text-anchor="end" fill="black">RX</text>

  <text x="520" y="288" font-family="Arial" font-size="12" text-anchor="start" fill="black">GPIO0</text>
  <text x="520" y="308" font-family="Arial" font-size="12" text-anchor="start" fill="black">GPIO2</text>
  <text x="520" y="328" font-family="Arial" font-size="12" text-anchor="start" fill="black">GPIO12</text>
  <text x="520" y="348" font-family="Arial" font-size="12" text-anchor="start" fill="black">GPIO13</text>

  <!-- FTDI Pin Labels -->
  <text x="200" y="288" font-family="Arial" font-size="12" text-anchor="end" fill="black">VCC (5V)</text>
  <text x="200" y="308" font-family="Arial" font-size="12" text-anchor="end" fill="black">GND</text>
  <text x="200" y="328" font-family="Arial" font-size="12" text-anchor="end" fill="black">TX</text>
  <text x="200" y="348" font-family="Arial" font-size="12" text-anchor="end" fill="black">RX</text>

  <!-- Connection Lines -->
  <line x1="230" y1="285" x2="290" y2="285" stroke="#ff0000" stroke-width="2"/>
  <line x1="230" y1="305" x2="290" y2="305" stroke="#000000" stroke-width="2"/>
  <line x1="230" y1="325" x2="290" y2="345" stroke="#00ff00" stroke-width="2"/>
  <line x1="230" y1="345" x2="290" y2="325" stroke="#0000ff" stroke-width="2"/>

  <!-- GPIO0 to GND Connection (for flashing) -->
  <line x1="510" y1="285" x2="550" y2="285" stroke="#ff00ff" stroke-width="2" stroke-dasharray="5,5"/>
  <line x1="550" y1="285" x2="550" y2="305" stroke="#ff00ff" stroke-width="2" stroke-dasharray="5,5"/>
  <line x1="550" y1="305" x2="510" y2="305" stroke="#ff00ff" stroke-width="2" stroke-dasharray="5,5"/>
  <text x="600" y="295" font-family="Arial" font-size="12" fill="#ff00ff">Connect only during flashing</text>

  <!-- Notes -->
  <g font-family="Arial" font-size="14" fill="white">
    <text x="100" y="430">Notes:</text>
    <text x="120" y="455">1. Connect GPIO0 to GND only when flashing the ESP32-CAM</text>
    <text x="120" y="480">2. Disconnect GPIO0 from GND for normal operation</text>
    <text x="120" y="505">3. Ensure stable 5V power supply (at least 500mA)</text>
  </g>
</svg>
