<?xml version="1.0" encoding="UTF-8" standalone="no"?>
<svg width="800" height="600" xmlns="http://www.w3.org/2000/svg">
  <!-- ESP32-CAM Module -->
  <rect x="300" y="200" width="200" height="250" rx="10" fill="#f0f0f0" stroke="#333" stroke-width="2"/>
  <text x="400" y="230" font-family="Arial" font-size="16" text-anchor="middle" font-weight="bold">ESP32-CAM</text>
  
  <!-- Camera Module -->
  <rect x="350" y="250" width="100" height="80" rx="5" fill="#ccc" stroke="#333" stroke-width="2"/>
  <circle cx="400" cy="290" r="25" fill="#333" stroke="#000" stroke-width="2"/>
  <circle cx="400" cy="290" r="15" fill="#222" stroke="#000" stroke-width="1"/>
  <circle cx="400" cy="290" r="5" fill="#111"/>
  
  <!-- Pins -->
  <g id="pins">
    <!-- Left side pins -->
    <rect x="290" y="350" width="20" height="10" fill="#ccc" stroke="#333"/>
    <rect x="290" y="370" width="20" height="10" fill="#ccc" stroke="#333"/>
    <rect x="290" y="390" width="20" height="10" fill="#ccc" stroke="#333"/>
    <rect x="290" y="410" width="20" height="10" fill="#ccc" stroke="#333"/>
    
    <!-- Right side pins -->
    <rect x="490" y="350" width="20" height="10" fill="#ccc" stroke="#333"/>
    <rect x="490" y="370" width="20" height="10" fill="#ccc" stroke="#333"/>
    <rect x="490" y="390" width="20" height="10" fill="#ccc" stroke="#333"/>
    <rect x="490" y="410" width="20" height="10" fill="#ccc" stroke="#333"/>
  </g>
  
  <!-- Pin Labels -->
  <text x="280" y="358" font-family="Arial" font-size="12" text-anchor="end">5V</text>
  <text x="280" y="378" font-family="Arial" font-size="12" text-anchor="end">GND</text>
  <text x="280" y="398" font-family="Arial" font-size="12" text-anchor="end">U0R (TX)</text>
  <text x="280" y="418" font-family="Arial" font-size="12" text-anchor="end">U0T (RX)</text>
  
  <text x="520" y="358" font-family="Arial" font-size="12" text-anchor="start">GPIO0</text>
  <text x="520" y="378" font-family="Arial" font-size="12" text-anchor="start">GPIO2</text>
  <text x="520" y="398" font-family="Arial" font-size="12" text-anchor="start">GPIO12</text>
  <text x="520" y="418" font-family="Arial" font-size="12" text-anchor="start">GPIO13</text>
  
  <!-- FTDI Programmer -->
  <rect x="100" y="300" width="120" height="150" rx="5" fill="#e6f7ff" stroke="#333" stroke-width="2"/>
  <text x="160" y="330" font-family="Arial" font-size="14" text-anchor="middle" font-weight="bold">FTDI Programmer</text>
  
  <!-- FTDI Pins -->
  <rect x="210" y="350" width="20" height="10" fill="#ccc" stroke="#333"/>
  <rect x="210" y="370" width="20" height="10" fill="#ccc" stroke="#333"/>
  <rect x="210" y="390" width="20" height="10" fill="#ccc" stroke="#333"/>
  <rect x="210" y="410" width="20" height="10" fill="#ccc" stroke="#333"/>
  
  <!-- FTDI Pin Labels -->
  <text x="200" y="358" font-family="Arial" font-size="12" text-anchor="end">VCC (5V)</text>
  <text x="200" y="378" font-family="Arial" font-size="12" text-anchor="end">GND</text>
  <text x="200" y="398" font-family="Arial" font-size="12" text-anchor="end">TX</text>
  <text x="200" y="418" font-family="Arial" font-size="12" text-anchor="end">RX</text>
  
  <!-- Connection Lines -->
  <line x1="230" y1="355" x2="290" y2="355" stroke="#ff0000" stroke-width="2"/>
  <line x1="230" y1="375" x2="290" y2="375" stroke="#000000" stroke-width="2"/>
  <line x1="230" y1="395" x2="290" y2="415" stroke="#00ff00" stroke-width="2"/>
  <line x1="230" y1="415" x2="290" y2="395" stroke="#0000ff" stroke-width="2"/>
  
  <!-- GPIO0 to GND Connection (for flashing) -->
  <line x1="510" y1="355" x2="550" y2="355" stroke="#ff00ff" stroke-width="2" stroke-dasharray="5,5"/>
  <line x1="550" y1="355" x2="550" y2="375" stroke="#ff00ff" stroke-width="2" stroke-dasharray="5,5"/>
  <line x1="550" y1="375" x2="510" y2="375" stroke="#ff00ff" stroke-width="2" stroke-dasharray="5,5"/>
  <text x="600" y="365" font-family="Arial" font-size="12" fill="#ff00ff">Connect only during flashing</text>
  
  <!-- Title and Notes -->
  <text x="400" y="100" font-family="Arial" font-size="24" text-anchor="middle" font-weight="bold">ESP32-CAM Wiring Diagram</text>
  <text x="400" y="130" font-family="Arial" font-size="16" text-anchor="middle">For Programming with FTDI Programmer</text>
  
  <!-- Notes -->
  <g font-family="Arial" font-size="14">
    <text x="100" y="500">Notes:</text>
    <text x="120" y="525">1. Connect GPIO0 to GND only when flashing the ESP32-CAM</text>
    <text x="120" y="550">2. Disconnect GPIO0 from GND for normal operation</text>
    <text x="120" y="575">3. Ensure stable 5V power supply (at least 500mA)</text>
  </g>
</svg>
