<?xml version="1.0" encoding="UTF-8" standalone="no"?>
<svg width="800" height="600" xmlns="http://www.w3.org/2000/svg">
  <!-- Background -->
  <rect width="800" height="600" fill="#f8f9fa"/>
  
  <!-- Title -->
  <text x="400" y="50" font-family="Arial" font-size="24" text-anchor="middle" font-weight="bold">AI WiFi CAM - System Architecture</text>
  
  <!-- ESP32-CAM Box -->
  <rect x="100" y="150" width="180" height="200" rx="10" fill="#e6f7ff" stroke="#0066cc" stroke-width="2"/>
  <text x="190" y="180" font-family="Arial" font-size="18" text-anchor="middle" font-weight="bold">ESP32-CAM</text>
  
  <!-- ESP32-CAM Components -->
  <rect x="120" y="200" width="140" height="30" rx="5" fill="#ffffff" stroke="#0066cc"/>
  <text x="190" y="220" font-family="Arial" font-size="14" text-anchor="middle">Camera Module</text>
  
  <rect x="120" y="240" width="140" height="30" rx="5" fill="#ffffff" stroke="#0066cc"/>
  <text x="190" y="260" font-family="Arial" font-size="14" text-anchor="middle">WiFi Module</text>
  
  <rect x="120" y="280" width="140" height="30" rx="5" fill="#ffffff" stroke="#0066cc"/>
  <text x="190" y="300" font-family="Arial" font-size="14" text-anchor="middle">Arduino Firmware</text>
  
  <!-- PC Box -->
  <rect x="520" y="150" width="180" height="300" rx="10" fill="#f0f4c3" stroke="#827717" stroke-width="2"/>
  <text x="610" y="180" font-family="Arial" font-size="18" text-anchor="middle" font-weight="bold">PC</text>
  
  <!-- PC Components -->
  <rect x="540" y="200" width="140" height="30" rx="5" fill="#ffffff" stroke="#827717"/>
  <text x="610" y="220" font-family="Arial" font-size="14" text-anchor="middle">WebSocket Server</text>
  
  <rect x="540" y="240" width="140" height="30" rx="5" fill="#ffffff" stroke="#827717"/>
  <text x="610" y="260" font-family="Arial" font-size="14" text-anchor="middle">OpenCV Processing</text>
  
  <rect x="540" y="280" width="140" height="30" rx="5" fill="#ffffff" stroke="#827717"/>
  <text x="610" y="300" font-family="Arial" font-size="14" text-anchor="middle">AI Models</text>
  
  <rect x="540" y="320" width="140" height="30" rx="5" fill="#ffffff" stroke="#827717"/>
  <text x="610" y="340" font-family="Arial" font-size="14" text-anchor="middle">Web Interface</text>
  
  <rect x="540" y="360" width="140" height="30" rx="5" fill="#ffffff" stroke="#827717"/>
  <text x="610" y="380" font-family="Arial" font-size="14" text-anchor="middle">Python Backend</text>
  
  <rect x="540" y="400" width="140" height="30" rx="5" fill="#ffffff" stroke="#827717"/>
  <text x="610" y="420" font-family="Arial" font-size="14" text-anchor="middle">NotebookLM API</text>
  
  <!-- AI Models Box -->
  <rect x="520" y="470" width="180" height="80" rx="10" fill="#e8eaf6" stroke="#3f51b5" stroke-width="2"/>
  <text x="610" y="495" font-family="Arial" font-size="16" text-anchor="middle" font-weight="bold">AI Models</text>
  
  <!-- AI Model Types -->
  <text x="550" y="520" font-family="Arial" font-size="12">• YOLOv4</text>
  <text x="550" y="540" font-family="Arial" font-size="12">• MediaPipe Face/Pose</text>
  
  <!-- Web Browser Box -->
  <rect x="310" y="470" width="180" height="80" rx="10" fill="#ffebee" stroke="#c62828" stroke-width="2"/>
  <text x="400" y="495" font-family="Arial" font-size="16" text-anchor="middle" font-weight="bold">Web Browser</text>
  <text x="400" y="520" font-family="Arial" font-size="12" text-anchor="middle">Processed Video Stream</text>
  <text x="400" y="540" font-family="Arial" font-size="12" text-anchor="middle">Interactive Controls</text>
  
  <!-- Connection Lines -->
  <!-- ESP32-CAM to PC -->
  <line x1="280" y1="250" x2="520" y2="250" stroke="#0066cc" stroke-width="3"/>
  <polygon points="510,240 520,250 510,260" fill="#0066cc"/>
  <text x="400" y="235" font-family="Arial" font-size="14" text-anchor="middle">WebSocket/TCP</text>
  <text x="400" y="255" font-family="Arial" font-size="12" text-anchor="middle">Video Stream</text>
  
  <!-- PC to Web Browser -->
  <line x1="610" y1="350" x2="610" y2="430" stroke="#827717" stroke-width="2"/>
  <line x1="610" y1="430" x2="400" y2="470" stroke="#827717" stroke-width="2"/>
  <polygon points="410,465 400,470 410,475" fill="#827717"/>
  <text x="500" y="450" font-family="Arial" font-size="12" text-anchor="middle">HTTP/WebSocket</text>
  
  <!-- PC to AI Models -->
  <line x1="610" y1="450" x2="610" y2="470" stroke="#3f51b5" stroke-width="2"/>
  <polygon points="605,460 610,470 615,460" fill="#3f51b5"/>
  
  <!-- WiFi Network Cloud -->
  <ellipse cx="400" cy="300" rx="80" ry="40" fill="#e1f5fe" stroke="#0288d1" stroke-width="2"/>
  <text x="400" y="305" font-family="Arial" font-size="16" text-anchor="middle">WiFi Network</text>
  
  <!-- Legend -->
  <rect x="100" y="500" width="20" height="10" fill="#e6f7ff" stroke="#0066cc"/>
  <text x="130" y="510" font-family="Arial" font-size="12">ESP32-CAM Components</text>
  
  <rect x="100" y="520" width="20" height="10" fill="#f0f4c3" stroke="#827717"/>
  <text x="130" y="530" font-family="Arial" font-size="12">PC Components</text>
  
  <rect x="100" y="540" width="20" height="10" fill="#e8eaf6" stroke="#3f51b5"/>
  <text x="130" y="550" font-family="Arial" font-size="12">AI Models</text>
  
  <rect x="100" y="560" width="20" height="10" fill="#ffebee" stroke="#c62828"/>
  <text x="130" y="570" font-family="Arial" font-size="12">Web Interface</text>
</svg>
