<?xml version="1.0" encoding="UTF-8" standalone="no"?>
<svg width="800" height="600" xmlns="http://www.w3.org/2000/svg">
  <!-- Background -->
  <rect width="800" height="600" fill="#f8f9fa"/>
  
  <!-- Browser Window -->
  <rect x="50" y="50" width="700" height="500" rx="10" fill="#ffffff" stroke="#dee2e6" stroke-width="2"/>
  
  <!-- Browser Controls -->
  <rect x="50" y="50" width="700" height="40" rx="10" fill="#f1f3f5" stroke="#dee2e6" stroke-width="2"/>
  <circle cx="80" cy="70" r="8" fill="#ff6b6b"/>
  <circle cx="110" cy="70" r="8" fill="#ffd43b"/>
  <circle cx="140" cy="70" r="8" fill="#69db7c"/>
  <rect x="170" y="60" width="400" height="20" rx="10" fill="#e9ecef" stroke="#dee2e6" stroke-width="1"/>
  
  <!-- Web Interface Header -->
  <rect x="70" y="110" width="660" height="60" rx="5" fill="#3498db" stroke="#2980b9" stroke-width="2"/>
  <text x="400" y="145" font-family="Arial" font-size="24" text-anchor="middle" fill="#ffffff" font-weight="bold">AI WiFi CAM</text>
  <text x="400" y="165" font-family="Arial" font-size="14" text-anchor="middle" fill="#ffffff">ESP32-CAM with Real-time AI Processing</text>
  
  <!-- Main Content Area -->
  <rect x="70" y="190" width="440" height="330" rx="5" fill="#e9ecef" stroke="#dee2e6" stroke-width="2"/>
  
  <!-- Video Display -->
  <rect x="90" y="210" width="400" height="290" rx="5" fill="#343a40" stroke="#212529" stroke-width="2"/>
  
  <!-- Sample Video Content with Detections -->
  <rect x="120" y="240" width="100" height="70" rx="2" fill="none" stroke="#28a745" stroke-width="2"/>
  <text x="170" y="235" font-family="Arial" font-size="12" text-anchor="middle" fill="#28a745">Person 0.92</text>
  
  <rect x="300" y="280" width="150" height="100" rx="2" fill="none" stroke="#fd7e14" stroke-width="2"/>
  <text x="375" y="275" font-family="Arial" font-size="12" text-anchor="middle" fill="#fd7e14">Chair 0.87</text>
  
  <rect x="200" y="350" width="80" height="60" rx="2" fill="none" stroke="#17a2b8" stroke-width="2"/>
  <text x="240" y="345" font-family="Arial" font-size="12" text-anchor="middle" fill="#17a2b8">Book 0.76</text>
  
  <!-- Control Panel -->
  <rect x="530" y="190" width="200" height="330" rx="5" fill="#e9ecef" stroke="#dee2e6" stroke-width="2"/>
  <text x="630" y="220" font-family="Arial" font-size="18" text-anchor="middle" fill="#343a40" font-weight="bold">Controls</text>
  
  <!-- AI Model Selector -->
  <text x="550" y="250" font-family="Arial" font-size="14" fill="#343a40">AI Model:</text>
  <rect x="550" y="260" width="160" height="30" rx="5" fill="#ffffff" stroke="#ced4da" stroke-width="1"/>
  <text x="570" y="280" font-family="Arial" font-size="14" fill="#343a40">YOLOv4</text>
  <polygon points="690,275 700,265 680,265" fill="#343a40"/>
  
  <!-- Confidence Threshold -->
  <text x="550" y="310" font-family="Arial" font-size="14" fill="#343a40">Confidence Threshold:</text>
  <rect x="550" y="320" width="160" height="20" rx="10" fill="#e9ecef" stroke="#ced4da" stroke-width="1"/>
  <circle cx="630" cy="330" r="10" fill="#3498db" stroke="#ffffff" stroke-width="2"/>
  <text x="550" y="350" font-family="Arial" font-size="12" fill="#343a40">0.0</text>
  <text x="710" y="350" font-family="Arial" font-size="12" text-anchor="end" fill="#343a40">1.0</text>
  <text x="630" y="350" font-family="Arial" font-size="12" text-anchor="middle" fill="#343a40">0.5</text>
  
  <!-- Resolution Selector -->
  <text x="550" y="380" font-family="Arial" font-size="14" fill="#343a40">Resolution:</text>
  <rect x="550" y="390" width="160" height="30" rx="5" fill="#ffffff" stroke="#ced4da" stroke-width="1"/>
  <text x="570" y="410" font-family="Arial" font-size="14" fill="#343a40">640x480 (VGA)</text>
  <polygon points="690,405 700,395 680,395" fill="#343a40"/>
  
  <!-- Snapshot Button -->
  <rect x="550" y="440" width="160" height="40" rx="5" fill="#3498db" stroke="#2980b9" stroke-width="2"/>
  <text x="630" y="465" font-family="Arial" font-size="16" text-anchor="middle" fill="#ffffff">Take Snapshot</text>
  <circle cx="580" cy="460" r="10" fill="#ffffff"/>
  <circle cx="580" cy="460" r="5" fill="#3498db"/>
  
  <!-- Status Information -->
  <rect x="550" y="500" width="160" height="80" rx="5" fill="#ffffff" stroke="#ced4da" stroke-width="1"/>
  <text x="560" y="520" font-family="Arial" font-size="12" fill="#343a40">FPS: 24.5</text>
  <text x="560" y="540" font-family="Arial" font-size="12" fill="#343a40">Resolution: 640x480</text>
  <text x="560" y="560" font-family="Arial" font-size="12" fill="#343a40">Detections: 3</text>
  
  <!-- Title and Notes -->
  <text x="400" y="550" font-family="Arial" font-size="14" text-anchor="middle" fill="#343a40">Live Video Stream with AI Detections</text>
</svg>
