<?xml version="1.0" encoding="UTF-8" standalone="no"?>
<svg width="800" height="600" xmlns="http://www.w3.org/2000/svg">
  <!-- Background -->
  <rect width="800" height="600" fill="#f8f9fa"/>

  <!-- Browser Window -->
  <rect x="25" y="30" width="750" height="540" rx="10" fill="#ffffff" stroke="#dee2e6" stroke-width="2"/>

  <!-- Browser Controls -->
  <rect x="25" y="30" width="750" height="40" rx="10" fill="#f1f3f5" stroke="#dee2e6" stroke-width="2"/>
  <circle cx="55" cy="50" r="8" fill="#ff6b6b"/>
  <circle cx="85" cy="50" r="8" fill="#ffd43b"/>
  <circle cx="115" cy="50" r="8" fill="#69db7c"/>
  <rect x="145" y="40" width="400" height="20" rx="10" fill="#e9ecef" stroke="#dee2e6" stroke-width="1"/>

  <!-- Web Interface Header -->
  <rect x="50" y="90" width="700" height="60" rx="5" fill="#4299e1" stroke="#3182ce" stroke-width="2"/>
  <text x="400" y="125" font-family="Arial" font-size="24" text-anchor="middle" fill="#ffffff" font-weight="bold">AI WiFi CAM</text>
  <text x="400" y="150" font-family="Arial" font-size="14" text-anchor="middle" fill="#ffffff">ESP32-CAM with Real-time AI Processing</text>

  <!-- Main Content Area - Left Side -->
  <rect x="50" y="170" width="440" height="350" rx="5" fill="#f1f3f5" stroke="#dee2e6" stroke-width="2"/>

  <!-- Video Display -->
  <rect x="70" y="190" width="400" height="300" rx="5" fill="#2d3748" stroke="#1a202c" stroke-width="2"/>

  <!-- Sample Video Content with Detections -->
  <rect x="100" y="230" width="100" height="70" rx="2" fill="none" stroke="#48bb78" stroke-width="2"/>
  <text x="150" y="225" font-family="Arial" font-size="12" text-anchor="middle" fill="#48bb78">Person 0.92</text>

  <rect x="240" y="240" width="150" height="100" rx="2" fill="none" stroke="#ed8936" stroke-width="2"/>
  <text x="315" y="235" font-family="Arial" font-size="12" text-anchor="middle" fill="#ed8936">Chair 0.87</text>

  <rect x="150" y="330" width="80" height="60" rx="2" fill="none" stroke="#38b2ac" stroke-width="2"/>
  <text x="190" y="325" font-family="Arial" font-size="12" text-anchor="middle" fill="#38b2ac">Book 0.76</text>

  <!-- Video Stream Label -->
  <text x="270" y="510" font-family="Arial" font-size="14" text-anchor="middle" fill="#4a5568">Live Video Stream with AI Detections</text>

  <!-- Control Panel - Right Side -->
  <rect x="510" y="170" width="240" height="350" rx="5" fill="#f1f3f5" stroke="#dee2e6" stroke-width="2"/>
  <text x="630" y="200" font-family="Arial" font-size="18" text-anchor="middle" fill="#4a5568" font-weight="bold">Controls</text>

  <!-- AI Model Selector -->
  <text x="530" y="230" font-family="Arial" font-size="14" fill="#4a5568">AI Model:</text>
  <rect x="530" y="240" width="200" height="30" rx="5" fill="#ffffff" stroke="#cbd5e0" stroke-width="1"/>
  <text x="550" y="260" font-family="Arial" font-size="14" fill="#4a5568">YOLOv4</text>
  <polygon points="710,255 720,245 700,245" fill="#4a5568"/>

  <!-- Confidence Threshold -->
  <text x="530" y="290" font-family="Arial" font-size="14" fill="#4a5568">Confidence Threshold:</text>
  <rect x="530" y="300" width="200" height="20" rx="10" fill="#edf2f7" stroke="#cbd5e0" stroke-width="1"/>
  <circle cx="630" cy="310" r="10" fill="#4299e1" stroke="#ffffff" stroke-width="2"/>
  <text x="530" y="330" font-family="Arial" font-size="12" fill="#4a5568">0.0</text>
  <text x="730" y="330" font-family="Arial" font-size="12" text-anchor="end" fill="#4a5568">1.0</text>
  <text x="630" y="330" font-family="Arial" font-size="12" text-anchor="middle" fill="#4a5568">0.5</text>

  <!-- Resolution Selector -->
  <text x="530" y="360" font-family="Arial" font-size="14" fill="#4a5568">Resolution:</text>
  <rect x="530" y="370" width="200" height="30" rx="5" fill="#ffffff" stroke="#cbd5e0" stroke-width="1"/>
  <text x="550" y="390" font-family="Arial" font-size="14" fill="#4a5568">640x480 (VGA)</text>
  <polygon points="710,385 720,375 700,375" fill="#4a5568"/>

  <!-- Snapshot Button -->
  <rect x="530" y="420" width="200" height="40" rx="5" fill="#4299e1" stroke="#3182ce" stroke-width="2"/>
  <text x="630" y="445" font-family="Arial" font-size="16" text-anchor="middle" fill="#ffffff">Take Snapshot</text>
  <circle cx="560" cy="440" r="10" fill="#ffffff"/>
  <circle cx="560" cy="440" r="5" fill="#4299e1"/>

  <!-- Status Information -->
  <rect x="530" y="480" width="200" height="80" rx="5" fill="#ffffff" stroke="#cbd5e0" stroke-width="1"/>
  <text x="540" y="500" font-family="Arial" font-size="12" fill="#4a5568">FPS: 24.5</text>
  <text x="540" y="520" font-family="Arial" font-size="12" fill="#4a5568">Resolution: 640x480</text>
  <text x="540" y="540" font-family="Arial" font-size="12" fill="#4a5568">Detections: 3</text>
</svg>
